{"asset":{"generator":"glTF-Transform v4.3.0","version":"2.0"},"accessors":[{"type":"VEC3","componentType":5126,"count":9266,"max":[0.4990234375,0.205078125,0.1337890625],"min":[-0.4990234375,0,-0.1337890625],"bufferView":0,"byteOffset":0},{"type":"VEC2","componentType":5126,"count":9266,"bufferView":0,"byteOffset":12},{"type":"SCALAR","componentType":5123,"count":14604,"bufferView":1,"byteOffset":0},{"bufferView":2,"byteOffset":0,"componentType":5126,"count":9266,"type":"VEC3"}],"bufferViews":[{"buffer":0,"byteOffset":0,"byteLength":185320,"byteStride":20,"target":34962},{"buffer":0,"byteOffset":185320,"byteLength":29208,"target":34963},{"buffer":0,"byteOffset":214528,"byteLength":111192,"target":34962}],"samplers":[{"magFilter":9729,"minFilter":9987,"wrapS":10497,"wrapT":10497}],"textures":[{"source":0,"sampler":0}],"images":[{"name":"tripo_image_e658b572-9446-4b4f-85fc-25dd22cd5d04_0","mimeType":"image/jpeg","uri":"baseColor.jpg"}],"buffers":[{"uri":"conveyor-deck.bin","byteLength":325720}],"materials":[{"name":"tripo_mat_e658b572-9446-4b4f-85fc-25dd22cd5d04","doubleSided":true,"pbrMetallicRoughness":{"roughnessFactor":0.8999999761581421,"metallicFactor":0,"baseColorTexture":{"index":0}}}],"meshes":[{"name":"tripo_mesh_e658b572-9446-4b4f-85fc-25dd22cd5d04","primitives":[{"attributes":{"POSITION":0,"TEXCOORD_0":1,"COLOR_0":3},"mode":4,"material":0,"indices":2}]}],"nodes":[{"name":"tripo_node_e658b572-9446-4b4f-85fc-25dd22cd5d04","mesh":0}],"scenes":[{"name":"Scene","nodes":[0]}],"scene":0}