{
  "asset": {
    "generator": "glTF-Transform v4.3.0",
    "version": "2.0"
  },
  "accessors": [
    {
      "type": "VEC3",
      "componentType": 5126,
      "count": 3372,
      "max": [
        0.2431640625,
        0.705078125,
        0.4990234375
      ],
      "min": [
        -0.2431640625,
        0,
        -0.4990234375
      ],
      "bufferView": 0,
      "byteOffset": 0
    },
    {
      "type": "VEC2",
      "componentType": 5126,
      "count": 3372,
      "bufferView": 0,
      "byteOffset": 12
    },
    {
      "type": "SCALAR",
      "componentType": 5123,
      "count": 14076,
      "bufferView": 1,
      "byteOffset": 0
    }
  ],
  "bufferViews": [
    {
      "buffer": 0,
      "byteOffset": 0,
      "byteLength": 67440,
      "byteStride": 20,
      "target": 34962
    },
    {
      "buffer": 0,
      "byteOffset": 67440,
      "byteLength": 28152,
      "target": 34963
    }
  ],
  "samplers": [
    {
      "magFilter": 9729,
      "minFilter": 9987,
      "wrapS": 10497,
      "wrapT": 10497
    }
  ],
  "textures": [
    {
      "source": 0,
      "sampler": 0
    }
  ],
  "images": [
    {
      "name": "tripo_image_50140755-6779-4da9-bcd7-5db72e1baa17_0",
      "mimeType": "image/jpeg",
      "uri": "baseColor.jpg"
    }
  ],
  "buffers": [
    {
      "uri": "escher-stair.bin",
      "byteLength": 95592
    }
  ],
  "materials": [
    {
      "name": "tripo_mat_50140755-6779-4da9-bcd7-5db72e1baa17",
      "doubleSided": true,
      "pbrMetallicRoughness": {
        "roughnessFactor": 0.8999999761581421,
        "metallicFactor": 0,
        "baseColorTexture": {
          "index": 0
        }
      }
    }
  ],
  "meshes": [
    {
      "name": "tripo_mesh_50140755-6779-4da9-bcd7-5db72e1baa17",
      "primitives": [
        {
          "attributes": {
            "POSITION": 0,
            "TEXCOORD_0": 1
          },
          "mode": 4,
          "material": 0,
          "indices": 2
        }
      ]
    }
  ],
  "nodes": [
    {
      "name": "tripo_node_50140755-6779-4da9-bcd7-5db72e1baa17",
      "mesh": 0
    }
  ],
  "scenes": [
    {
      "name": "Scene",
      "nodes": [
        0
      ]
    }
  ],
  "scene": 0
}