{"asset":{"generator":"glTF-Transform v4.3.0","version":"2.0"},"accessors":[{"type":"VEC3","componentType":5126,"count":5837,"max":[0.4990234375,0.685546875,0.2646484375],"min":[-0.4990234375,0,-0.2646484375],"bufferView":0,"byteOffset":0},{"type":"VEC2","componentType":5126,"count":5837,"bufferView":0,"byteOffset":12},{"type":"SCALAR","componentType":5123,"count":14556,"bufferView":1,"byteOffset":0},{"bufferView":2,"byteOffset":0,"componentType":5126,"count":5837,"type":"VEC3"}],"bufferViews":[{"buffer":0,"byteOffset":0,"byteLength":116740,"byteStride":20,"target":34962},{"buffer":0,"byteOffset":116740,"byteLength":29112,"target":34963},{"buffer":0,"byteOffset":145852,"byteLength":70044,"target":34962}],"samplers":[{"magFilter":9729,"minFilter":9987,"wrapS":10497,"wrapT":10497}],"textures":[{"source":0,"sampler":0}],"images":[{"name":"tripo_image_f057d457-520b-42d7-bea0-31112bb3b248_0","mimeType":"image/jpeg","uri":"baseColor.jpg"}],"buffers":[{"uri":"delivery-truck.bin","byteLength":215896}],"materials":[{"name":"tripo_mat_f057d457-520b-42d7-bea0-31112bb3b248","doubleSided":true,"pbrMetallicRoughness":{"roughnessFactor":0.8999999761581421,"metallicFactor":0,"baseColorTexture":{"index":0}}}],"meshes":[{"name":"tripo_mesh_f057d457-520b-42d7-bea0-31112bb3b248","primitives":[{"attributes":{"POSITION":0,"TEXCOORD_0":1,"COLOR_0":3},"mode":4,"material":0,"indices":2}]}],"nodes":[{"name":"tripo_node_f057d457-520b-42d7-bea0-31112bb3b248","mesh":0}],"scenes":[{"name":"Scene","nodes":[0]}],"scene":0}