{"asset":{"generator":"glTF-Transform v4.3.0","version":"2.0"},"accessors":[{"type":"VEC3","componentType":5126,"count":3270,"max":[0.4990234375,0.693359375,0.4990234375],"min":[-0.4990234375,0,-0.4990234375],"bufferView":0,"byteOffset":0},{"type":"VEC2","componentType":5126,"count":3270,"bufferView":0,"byteOffset":12},{"type":"SCALAR","componentType":5123,"count":14682,"bufferView":1,"byteOffset":0},{"bufferView":2,"byteOffset":0,"componentType":5126,"count":3270,"type":"VEC3"}],"bufferViews":[{"buffer":0,"byteOffset":0,"byteLength":65400,"byteStride":20,"target":34962},{"buffer":0,"byteOffset":65400,"byteLength":29364,"target":34963},{"buffer":0,"byteOffset":94764,"byteLength":39240,"target":34962}],"samplers":[{"magFilter":9729,"minFilter":9987,"wrapS":10497,"wrapT":10497}],"textures":[{"source":0,"sampler":0}],"images":[{"name":"tripo_image_dd3c0e54-b940-4a0e-a97b-38f0f507f7b3_0","mimeType":"image/jpeg","uri":"baseColor.jpg"}],"buffers":[{"uri":"sphere-package-with-cradle.bin","byteLength":134004}],"materials":[{"name":"tripo_mat_dd3c0e54-b940-4a0e-a97b-38f0f507f7b3","doubleSided":true,"pbrMetallicRoughness":{"roughnessFactor":0.8999999761581421,"metallicFactor":0,"baseColorTexture":{"index":0}}}],"meshes":[{"name":"tripo_mesh_dd3c0e54-b940-4a0e-a97b-38f0f507f7b3","primitives":[{"attributes":{"POSITION":0,"TEXCOORD_0":1,"COLOR_0":3},"mode":4,"material":0,"indices":2}]}],"nodes":[{"name":"tripo_node_dd3c0e54-b940-4a0e-a97b-38f0f507f7b3","mesh":0}],"scenes":[{"name":"Scene","nodes":[0]}],"scene":0}