{"asset":{"generator":"glTF-Transform v4.3.0","version":"2.0"},"accessors":[{"type":"VEC3","componentType":5126,"count":3374,"max":[0.4951171875,0.998046875,0.3759765625],"min":[-0.4951171875,0,-0.3759765625],"bufferView":0,"byteOffset":0},{"type":"VEC2","componentType":5126,"count":3374,"bufferView":0,"byteOffset":12},{"type":"SCALAR","componentType":5123,"count":14424,"bufferView":1,"byteOffset":0},{"bufferView":2,"byteOffset":0,"componentType":5126,"count":3374,"type":"VEC3"}],"bufferViews":[{"buffer":0,"byteOffset":0,"byteLength":67480,"byteStride":20,"target":34962},{"buffer":0,"byteOffset":67480,"byteLength":28848,"target":34963},{"buffer":0,"byteOffset":96328,"byteLength":40488,"target":34962}],"samplers":[{"magFilter":9729,"minFilter":9987,"wrapS":10497,"wrapT":10497}],"textures":[{"source":0,"sampler":0}],"images":[{"name":"tripo_image_965f1ad7-a7b4-4f36-81e7-0dd764994ae4_0","mimeType":"image/jpeg","uri":"baseColor.jpg"}],"buffers":[{"uri":"repair-wrench.bin","byteLength":136816}],"materials":[{"name":"tripo_mat_965f1ad7-a7b4-4f36-81e7-0dd764994ae4","doubleSided":true,"pbrMetallicRoughness":{"roughnessFactor":0.8999999761581421,"metallicFactor":0,"baseColorTexture":{"index":0}}}],"meshes":[{"name":"tripo_mesh_965f1ad7-a7b4-4f36-81e7-0dd764994ae4","primitives":[{"attributes":{"POSITION":0,"TEXCOORD_0":1,"COLOR_0":3},"mode":4,"material":0,"indices":2}]}],"nodes":[{"name":"tripo_node_965f1ad7-a7b4-4f36-81e7-0dd764994ae4","mesh":0}],"scenes":[{"name":"Scene","nodes":[0]}],"scene":0}