{"asset":{"generator":"glTF-Transform v4.3.0","version":"2.0"},"accessors":[{"type":"VEC3","componentType":5126,"count":5723,"max":[0.4970703125,0.4990234375,0.4384765625],"min":[-0.4970703125,-0.4990234375,-0.4384765625],"bufferView":0,"byteOffset":0},{"type":"VEC2","componentType":5126,"count":5723,"bufferView":0,"byteOffset":12},{"type":"SCALAR","componentType":5123,"count":11904,"bufferView":1,"byteOffset":0},{"bufferView":2,"byteOffset":0,"componentType":5126,"count":5723,"type":"VEC3"}],"bufferViews":[{"buffer":0,"byteOffset":0,"byteLength":114460,"byteStride":20,"target":34962},{"buffer":0,"byteOffset":114460,"byteLength":23808,"target":34963},{"buffer":0,"byteOffset":138268,"byteLength":68676,"target":34962}],"samplers":[{"magFilter":9729,"minFilter":9987,"wrapS":10497,"wrapT":10497}],"textures":[{"source":0,"sampler":0}],"images":[{"name":"impossibletriangle3dmodel_basecolor","mimeType":"image/jpeg","uri":"baseColor.jpg"}],"buffers":[{"uri":"penrose-loop.bin","byteLength":206944}],"materials":[{"name":"tripo_mat_f52b1a35-90fd-4824-8c2d-6050e2a08024","doubleSided":true,"pbrMetallicRoughness":{"roughnessFactor":0.8999999761581421,"metallicFactor":0,"baseColorTexture":{"index":0}}}],"meshes":[{"name":"tripo_mesh_f52b1a35-90fd-4824-8c2d-6050e2a08024","primitives":[{"attributes":{"POSITION":0,"TEXCOORD_0":1,"COLOR_0":3},"mode":4,"material":0,"indices":2}]}],"nodes":[{"name":"tripo_node_f52b1a35-90fd-4824-8c2d-6050e2a08024","mesh":0}],"scenes":[{"name":"Scene","nodes":[0]}],"scene":0}