{"asset":{"generator":"glTF-Transform v4.3.0","version":"2.0"},"accessors":[{"type":"VEC3","componentType":5126,"count":3651,"max":[0.4990234375,0.564453125,0.4990234375],"min":[-0.4990234375,0,-0.4990234375],"bufferView":0,"byteOffset":0},{"type":"VEC2","componentType":5126,"count":3651,"bufferView":0,"byteOffset":12},{"type":"SCALAR","componentType":5123,"count":13752,"bufferView":1,"byteOffset":0},{"bufferView":2,"byteOffset":0,"componentType":5126,"count":3651,"type":"VEC3"}],"bufferViews":[{"buffer":0,"byteOffset":0,"byteLength":73020,"byteStride":20,"target":34962},{"buffer":0,"byteOffset":73020,"byteLength":27504,"target":34963},{"buffer":0,"byteOffset":100524,"byteLength":43812,"target":34962}],"samplers":[{"magFilter":9729,"minFilter":9987,"wrapS":10497,"wrapT":10497}],"textures":[{"source":0,"sampler":0}],"images":[{"name":"tripo_image_d986df9a-3d0e-40a8-8fe7-ecc76857cb38_0","mimeType":"image/jpeg","uri":"baseColor.jpg"}],"buffers":[{"uri":"inspection-dock.bin","byteLength":144336}],"materials":[{"name":"tripo_mat_d986df9a-3d0e-40a8-8fe7-ecc76857cb38","doubleSided":true,"pbrMetallicRoughness":{"roughnessFactor":0.8999999761581421,"metallicFactor":0,"baseColorTexture":{"index":0}}}],"meshes":[{"name":"tripo_mesh_d986df9a-3d0e-40a8-8fe7-ecc76857cb38","primitives":[{"attributes":{"POSITION":0,"TEXCOORD_0":1,"COLOR_0":3},"mode":4,"material":0,"indices":2}]}],"nodes":[{"name":"tripo_node_d986df9a-3d0e-40a8-8fe7-ecc76857cb38","mesh":0}],"scenes":[{"name":"Scene","nodes":[0]}],"scene":0}