{"asset":{"generator":"glTF-Transform v4.3.0","version":"2.0"},"accessors":[{"type":"VEC3","componentType":5126,"count":3390,"max":[0.4990234375,0.943359375,0.4501953125],"min":[-0.4990234375,0,-0.4501953125],"bufferView":0,"byteOffset":0},{"type":"VEC2","componentType":5126,"count":3390,"bufferView":0,"byteOffset":12},{"type":"SCALAR","componentType":5123,"count":15096,"bufferView":1,"byteOffset":0},{"bufferView":2,"byteOffset":0,"componentType":5126,"count":3390,"type":"VEC3"}],"bufferViews":[{"buffer":0,"byteOffset":0,"byteLength":67800,"byteStride":20,"target":34962},{"buffer":0,"byteOffset":67800,"byteLength":30192,"target":34963},{"buffer":0,"byteOffset":97992,"byteLength":40680,"target":34962}],"samplers":[{"magFilter":9729,"minFilter":9987,"wrapS":10497,"wrapT":10497}],"textures":[{"source":0,"sampler":0}],"images":[{"name":"tripo_image_3be9d705-db69-4b03-9677-bb6118568ff7_0","mimeType":"image/jpeg","uri":"baseColor.jpg"}],"buffers":[{"uri":"cube-crate.bin","byteLength":138672}],"materials":[{"name":"tripo_mat_3be9d705-db69-4b03-9677-bb6118568ff7","doubleSided":true,"pbrMetallicRoughness":{"roughnessFactor":0.8999999761581421,"metallicFactor":0,"baseColorTexture":{"index":0}}}],"meshes":[{"name":"tripo_mesh_3be9d705-db69-4b03-9677-bb6118568ff7","primitives":[{"attributes":{"POSITION":0,"TEXCOORD_0":1,"COLOR_0":3},"mode":4,"material":0,"indices":2}]}],"nodes":[{"name":"tripo_node_3be9d705-db69-4b03-9677-bb6118568ff7","mesh":0}],"scenes":[{"name":"Scene","nodes":[0]}],"scene":0}