{"asset":{"generator":"glTF-Transform v4.3.0","version":"2.0"},"accessors":[{"type":"VEC3","componentType":5126,"count":5659,"max":[0.3896484375,0.318359375,0.4990234375],"min":[-0.3896484375,0,-0.4990234375],"bufferView":0,"byteOffset":0},{"type":"VEC2","componentType":5126,"count":5659,"bufferView":0,"byteOffset":12},{"type":"SCALAR","componentType":5123,"count":15045,"bufferView":1,"byteOffset":0},{"bufferView":2,"byteOffset":0,"componentType":5126,"count":5659,"type":"VEC3"}],"bufferViews":[{"buffer":0,"byteOffset":0,"byteLength":113180,"byteStride":20,"target":34962},{"buffer":0,"byteOffset":113180,"byteLength":30092,"target":34963},{"buffer":0,"byteOffset":143272,"byteLength":67908,"target":34962}],"samplers":[{"magFilter":9729,"minFilter":9987,"wrapS":10497,"wrapT":10497}],"textures":[{"source":0,"sampler":0}],"images":[{"name":"tripo_image_c0806915-63e5-41d9-b78d-8036f04c0a93_0","mimeType":"image/jpeg","uri":"baseColor.jpg"}],"buffers":[{"uri":"valid-geometry-insert-set.bin","byteLength":211180}],"materials":[{"name":"tripo_mat_c0806915-63e5-41d9-b78d-8036f04c0a93","doubleSided":true,"pbrMetallicRoughness":{"roughnessFactor":0.8999999761581421,"metallicFactor":0,"baseColorTexture":{"index":0}}}],"meshes":[{"name":"tripo_mesh_c0806915-63e5-41d9-b78d-8036f04c0a93","primitives":[{"attributes":{"POSITION":0,"TEXCOORD_0":1,"COLOR_0":3},"mode":4,"material":0,"indices":2}]}],"nodes":[{"name":"tripo_node_c0806915-63e5-41d9-b78d-8036f04c0a93","mesh":0}],"scenes":[{"name":"Scene","nodes":[0]}],"scene":0}