{
  "asset": {
    "generator": "glTF-Transform v4.3.0",
    "version": "2.0"
  },
  "accessors": [
    {
      "type": "VEC3",
      "componentType": 5126,
      "count": 4523,
      "max": [
        0.4990234375,
        0.814453125,
        0.4853515625
      ],
      "min": [
        -0.4990234375,
        0,
        -0.4853515625
      ],
      "bufferView": 0,
      "byteOffset": 0
    },
    {
      "type": "VEC2",
      "componentType": 5126,
      "count": 4523,
      "bufferView": 0,
      "byteOffset": 12
    },
    {
      "type": "SCALAR",
      "componentType": 5123,
      "count": 13476,
      "bufferView": 1,
      "byteOffset": 0
    }
  ],
  "bufferViews": [
    {
      "buffer": 0,
      "byteOffset": 0,
      "byteLength": 90460,
      "byteStride": 20,
      "target": 34962
    },
    {
      "buffer": 0,
      "byteOffset": 90460,
      "byteLength": 26952,
      "target": 34963
    }
  ],
  "samplers": [
    {
      "magFilter": 9729,
      "minFilter": 9987,
      "wrapS": 10497,
      "wrapT": 10497
    }
  ],
  "textures": [
    {
      "source": 0,
      "sampler": 0
    }
  ],
  "images": [
    {
      "name": "tripo_image_9f342f27-dea2-433d-b339-5ca42ebc4c79_0",
      "mimeType": "image/jpeg",
      "uri": "baseColor.jpg"
    }
  ],
  "buffers": [
    {
      "uri": "return-bin.bin",
      "byteLength": 117412
    }
  ],
  "materials": [
    {
      "name": "tripo_mat_9f342f27-dea2-433d-b339-5ca42ebc4c79",
      "doubleSided": true,
      "pbrMetallicRoughness": {
        "roughnessFactor": 0.8999999761581421,
        "metallicFactor": 0,
        "baseColorTexture": {
          "index": 0
        }
      }
    }
  ],
  "meshes": [
    {
      "name": "tripo_mesh_9f342f27-dea2-433d-b339-5ca42ebc4c79",
      "primitives": [
        {
          "attributes": {
            "POSITION": 0,
            "TEXCOORD_0": 1
          },
          "mode": 4,
          "material": 0,
          "indices": 2
        }
      ]
    }
  ],
  "nodes": [
    {
      "name": "tripo_node_9f342f27-dea2-433d-b339-5ca42ebc4c79",
      "mesh": 0
    }
  ],
  "scenes": [
    {
      "name": "Scene",
      "nodes": [
        0
      ]
    }
  ],
  "scene": 0
}